<?xml version="1.0" encoding="UTF-8" standalone="no"?>
<!DOCTYPE svg PUBLIC "-//W3C//DTD SVG 1.1//EN"
 "http://www.w3.org/Graphics/SVG/1.1/DTD/svg11.dtd">
<!-- Generated by graphviz version 2.43.0 (0)
 -->
<!-- Title: %3 Pages: 1 -->
<svg width="475pt" height="620pt"
 viewBox="0.00 0.00 475.34 620.00" xmlns="http://www.w3.org/2000/svg" xmlns:xlink="http://www.w3.org/1999/xlink">
<g id="graph0" class="graph" transform="scale(1 1) rotate(0) translate(4 616)">
<title>%3</title>
<polygon fill="white" stroke="transparent" points="-4,4 -4,-616 471.34,-616 471.34,4 -4,4"/>
<!-- 1 -->
<g id="node1" class="node">
<title>1</title>
<ellipse fill="none" stroke="black" cx="136.69" cy="-594" rx="29.5" ry="18"/>
<text text-anchor="middle" x="136.69" y="-590.3" font-family="Times,serif" font-size="14.00">OLT</text>
</g>
<!-- 2 -->
<g id="node2" class="node">
<title>2</title>
<ellipse fill="none" stroke="green" cx="136.69" cy="-522" rx="42.79" ry="18"/>
<text text-anchor="middle" x="136.69" y="-518.3" font-family="Times,serif" font-size="14.00">Cable1</text>
</g>
<!-- 1&#45;&gt;2 -->
<g id="edge1" class="edge">
<title>1&#45;&gt;2</title>
<path fill="none" stroke="black" d="M136.69,-575.7C136.69,-567.98 136.69,-558.71 136.69,-550.11"/>
<polygon fill="black" stroke="black" points="140.19,-550.1 136.69,-540.1 133.19,-550.1 140.19,-550.1"/>
</g>
<!-- 3 -->
<g id="node4" class="node">
<title>3</title>
<ellipse fill="none" stroke="green" cx="136.69" cy="-450" rx="37.89" ry="18"/>
<text text-anchor="middle" x="136.69" y="-446.3" font-family="Times,serif" font-size="14.00">CEO1</text>
</g>
<!-- 2&#45;&gt;3 -->
<g id="edge19" class="edge">
<title>2&#45;&gt;3</title>
<path fill="none" stroke="black" d="M136.69,-503.7C136.69,-495.98 136.69,-486.71 136.69,-478.11"/>
<polygon fill="black" stroke="black" points="140.19,-478.1 136.69,-468.1 133.19,-478.1 140.19,-478.1"/>
</g>
<!-- 20 -->
<g id="node3" class="node">
<title>20</title>
<ellipse fill="none" stroke="red" cx="427.69" cy="-18" rx="39.79" ry="18"/>
<text text-anchor="middle" x="427.69" y="-14.3" font-family="Times,serif" font-size="14.00">ONU5</text>
</g>
<!-- 4 -->
<g id="node5" class="node">
<title>4</title>
<ellipse fill="none" stroke="green" cx="136.69" cy="-378" rx="63.89" ry="18"/>
<text text-anchor="middle" x="136.69" y="-374.3" font-family="Times,serif" font-size="14.00">Splitter1x2</text>
</g>
<!-- 3&#45;&gt;4 -->
<g id="edge2" class="edge">
<title>3&#45;&gt;4</title>
<path fill="none" stroke="black" d="M136.69,-431.7C136.69,-423.98 136.69,-414.71 136.69,-406.11"/>
<polygon fill="black" stroke="black" points="140.19,-406.1 136.69,-396.1 133.19,-406.1 140.19,-406.1"/>
</g>
<!-- 5 -->
<g id="node16" class="node">
<title>5</title>
<ellipse fill="none" stroke="green" cx="84.69" cy="-306" rx="42.79" ry="18"/>
<text text-anchor="middle" x="84.69" y="-302.3" font-family="Times,serif" font-size="14.00">Cable2</text>
</g>
<!-- 4&#45;&gt;5 -->
<g id="edge9" class="edge">
<title>4&#45;&gt;5</title>
<path fill="none" stroke="black" d="M124.11,-360.05C117.76,-351.5 109.93,-340.97 102.94,-331.56"/>
<polygon fill="black" stroke="black" points="105.58,-329.25 96.81,-323.31 99.96,-333.42 105.58,-329.25"/>
</g>
<!-- 8 -->
<g id="node18" class="node">
<title>8</title>
<ellipse fill="none" stroke="blue" cx="188.69" cy="-306" rx="42.79" ry="18"/>
<text text-anchor="middle" x="188.69" y="-302.3" font-family="Times,serif" font-size="14.00">Cable3</text>
</g>
<!-- 4&#45;&gt;8 -->
<g id="edge10" class="edge">
<title>4&#45;&gt;8</title>
<path fill="none" stroke="black" d="M149.28,-360.05C155.63,-351.5 163.46,-340.97 170.45,-331.56"/>
<polygon fill="black" stroke="black" points="173.43,-333.42 176.58,-323.31 167.81,-329.25 173.43,-333.42"/>
</g>
<!-- 9 -->
<g id="node6" class="node">
<title>9</title>
<ellipse fill="none" stroke="red" cx="184.69" cy="-234" rx="36.29" ry="18"/>
<text text-anchor="middle" x="184.69" y="-230.3" font-family="Times,serif" font-size="14.00">CTO2</text>
</g>
<!-- 10 -->
<g id="node7" class="node">
<title>10</title>
<ellipse fill="none" stroke="red" cx="220.69" cy="-162" rx="63.89" ry="18"/>
<text text-anchor="middle" x="220.69" y="-158.3" font-family="Times,serif" font-size="14.00">Splitter1x4</text>
</g>
<!-- 9&#45;&gt;10 -->
<g id="edge3" class="edge">
<title>9&#45;&gt;10</title>
<path fill="none" stroke="black" d="M193.23,-216.41C197.42,-208.25 202.58,-198.22 207.29,-189.07"/>
<polygon fill="black" stroke="black" points="210.51,-190.45 211.97,-179.96 204.29,-187.25 210.51,-190.45"/>
</g>
<!-- 13 -->
<g id="node10" class="node">
<title>13</title>
<ellipse fill="none" stroke="red" cx="233.69" cy="-90" rx="39.79" ry="18"/>
<text text-anchor="middle" x="233.69" y="-86.3" font-family="Times,serif" font-size="14.00">Drop3</text>
</g>
<!-- 10&#45;&gt;13 -->
<g id="edge12" class="edge">
<title>10&#45;&gt;13</title>
<path fill="none" stroke="black" d="M223.91,-143.7C225.34,-135.98 227.06,-126.71 228.66,-118.11"/>
<polygon fill="black" stroke="black" points="232.13,-118.58 230.52,-108.1 225.25,-117.3 232.13,-118.58"/>
</g>
<!-- 14 -->
<g id="node11" class="node">
<title>14</title>
<ellipse fill="none" stroke="red" cx="330.69" cy="-90" rx="39.79" ry="18"/>
<text text-anchor="middle" x="330.69" y="-86.3" font-family="Times,serif" font-size="14.00">Drop4</text>
</g>
<!-- 10&#45;&gt;14 -->
<g id="edge13" class="edge">
<title>10&#45;&gt;14</title>
<path fill="none" stroke="black" d="M245.38,-145.29C261.56,-134.99 282.84,-121.46 300.09,-110.47"/>
<polygon fill="black" stroke="black" points="302.14,-113.32 308.7,-105 298.38,-107.41 302.14,-113.32"/>
</g>
<!-- 15 -->
<g id="node19" class="node">
<title>15</title>
<ellipse fill="none" stroke="red" cx="427.69" cy="-90" rx="39.79" ry="18"/>
<text text-anchor="middle" x="427.69" y="-86.3" font-family="Times,serif" font-size="14.00">Drop5</text>
</g>
<!-- 10&#45;&gt;15 -->
<g id="edge14" class="edge">
<title>10&#45;&gt;15</title>
<path fill="none" stroke="black" d="M260.62,-147.92C292.82,-137.32 339.24,-121.9 379.69,-108 382.4,-107.07 385.19,-106.1 387.99,-105.13"/>
<polygon fill="black" stroke="black" points="389.23,-108.4 397.51,-101.79 386.92,-101.79 389.23,-108.4"/>
</g>
<!-- 16 -->
<g id="node8" class="node">
<title>16</title>
<ellipse fill="none" stroke="red" cx="136.69" cy="-18" rx="39.79" ry="18"/>
<text text-anchor="middle" x="136.69" y="-14.3" font-family="Times,serif" font-size="14.00">ONU1</text>
</g>
<!-- 18 -->
<g id="node9" class="node">
<title>18</title>
<ellipse fill="none" stroke="red" cx="233.69" cy="-18" rx="39.79" ry="18"/>
<text text-anchor="middle" x="233.69" y="-14.3" font-family="Times,serif" font-size="14.00">ONU3</text>
</g>
<!-- 13&#45;&gt;18 -->
<g id="edge4" class="edge">
<title>13&#45;&gt;18</title>
<path fill="none" stroke="black" d="M233.69,-71.7C233.69,-63.98 233.69,-54.71 233.69,-46.11"/>
<polygon fill="black" stroke="black" points="237.19,-46.1 233.69,-36.1 230.19,-46.1 237.19,-46.1"/>
</g>
<!-- 19 -->
<g id="node12" class="node">
<title>19</title>
<ellipse fill="none" stroke="red" cx="330.69" cy="-18" rx="39.79" ry="18"/>
<text text-anchor="middle" x="330.69" y="-14.3" font-family="Times,serif" font-size="14.00">ONU4</text>
</g>
<!-- 14&#45;&gt;19 -->
<g id="edge5" class="edge">
<title>14&#45;&gt;19</title>
<path fill="none" stroke="black" d="M330.69,-71.7C330.69,-63.98 330.69,-54.71 330.69,-46.11"/>
<polygon fill="black" stroke="black" points="334.19,-46.1 330.69,-36.1 327.19,-46.1 334.19,-46.1"/>
</g>
<!-- 7 -->
<g id="node13" class="node">
<title>7</title>
<ellipse fill="none" stroke="green" cx="63.69" cy="-162" rx="63.89" ry="18"/>
<text text-anchor="middle" x="63.69" y="-158.3" font-family="Times,serif" font-size="14.00">Splitter1x4</text>
</g>
<!-- 12 -->
<g id="node14" class="node">
<title>12</title>
<ellipse fill="none" stroke="green" cx="39.69" cy="-90" rx="39.79" ry="18"/>
<text text-anchor="middle" x="39.69" y="-86.3" font-family="Times,serif" font-size="14.00">Drop2</text>
</g>
<!-- 7&#45;&gt;12 -->
<g id="edge6" class="edge">
<title>7&#45;&gt;12</title>
<path fill="none" stroke="black" d="M57.88,-144.05C55.18,-136.18 51.91,-126.62 48.88,-117.79"/>
<polygon fill="black" stroke="black" points="52.17,-116.6 45.62,-108.28 45.55,-118.87 52.17,-116.6"/>
</g>
<!-- 11 -->
<g id="node15" class="node">
<title>11</title>
<ellipse fill="none" stroke="blue" cx="136.69" cy="-90" rx="39.79" ry="18"/>
<text text-anchor="middle" x="136.69" y="-86.3" font-family="Times,serif" font-size="14.00">Drop1</text>
</g>
<!-- 7&#45;&gt;11 -->
<g id="edge7" class="edge">
<title>7&#45;&gt;11</title>
<path fill="none" stroke="black" d="M80.99,-144.41C90.63,-135.17 102.76,-123.54 113.24,-113.49"/>
<polygon fill="black" stroke="black" points="115.72,-115.96 120.52,-106.51 110.88,-110.91 115.72,-115.96"/>
</g>
<!-- 17 -->
<g id="node20" class="node">
<title>17</title>
<ellipse fill="none" stroke="green" cx="39.69" cy="-18" rx="39.79" ry="18"/>
<text text-anchor="middle" x="39.69" y="-14.3" font-family="Times,serif" font-size="14.00">ONU2</text>
</g>
<!-- 12&#45;&gt;17 -->
<g id="edge15" class="edge">
<title>12&#45;&gt;17</title>
<path fill="none" stroke="black" d="M39.69,-71.7C39.69,-63.98 39.69,-54.71 39.69,-46.11"/>
<polygon fill="black" stroke="black" points="43.19,-46.1 39.69,-36.1 36.19,-46.1 43.19,-46.1"/>
</g>
<!-- 11&#45;&gt;16 -->
<g id="edge16" class="edge">
<title>11&#45;&gt;16</title>
<path fill="none" stroke="black" d="M136.69,-71.7C136.69,-63.98 136.69,-54.71 136.69,-46.11"/>
<polygon fill="black" stroke="black" points="140.19,-46.1 136.69,-36.1 133.19,-46.1 140.19,-46.1"/>
</g>
<!-- 6 -->
<g id="node17" class="node">
<title>6</title>
<ellipse fill="none" stroke="green" cx="90.69" cy="-234" rx="36.29" ry="18"/>
<text text-anchor="middle" x="90.69" y="-230.3" font-family="Times,serif" font-size="14.00">CTO1</text>
</g>
<!-- 5&#45;&gt;6 -->
<g id="edge8" class="edge">
<title>5&#45;&gt;6</title>
<path fill="none" stroke="black" d="M86.18,-287.7C86.84,-279.98 87.63,-270.71 88.37,-262.11"/>
<polygon fill="black" stroke="black" points="91.86,-262.37 89.23,-252.1 84.89,-261.77 91.86,-262.37"/>
</g>
<!-- 6&#45;&gt;7 -->
<g id="edge11" class="edge">
<title>6&#45;&gt;7</title>
<path fill="none" stroke="black" d="M84.16,-216.05C81.12,-208.18 77.43,-198.62 74.03,-189.79"/>
<polygon fill="black" stroke="black" points="77.22,-188.35 70.36,-180.28 70.69,-190.86 77.22,-188.35"/>
</g>
<!-- 8&#45;&gt;9 -->
<g id="edge17" class="edge">
<title>8&#45;&gt;9</title>
<path fill="none" stroke="black" d="M187.71,-287.7C187.26,-279.98 186.74,-270.71 186.24,-262.11"/>
<polygon fill="black" stroke="black" points="189.74,-261.89 185.67,-252.1 182.75,-262.29 189.74,-261.89"/>
</g>
<!-- 15&#45;&gt;20 -->
<g id="edge18" class="edge">
<title>15&#45;&gt;20</title>
<path fill="none" stroke="black" d="M427.69,-71.7C427.69,-63.98 427.69,-54.71 427.69,-46.11"/>
<polygon fill="black" stroke="black" points="431.19,-46.1 427.69,-36.1 424.19,-46.1 431.19,-46.1"/>
</g>
</g>
</svg>
