<?xml version="1.0" encoding="UTF-8" standalone="no"?>
<!DOCTYPE svg PUBLIC "-//W3C//DTD SVG 1.1//EN"
 "http://www.w3.org/Graphics/SVG/1.1/DTD/svg11.dtd">
<!-- Generated by graphviz version 2.43.0 (0)
 -->
<!-- Title: %3 Pages: 1 -->
<svg width="413pt" height="260pt"
 viewBox="0.00 0.00 412.64 260.00" xmlns="http://www.w3.org/2000/svg" xmlns:xlink="http://www.w3.org/1999/xlink">
<g id="graph0" class="graph" transform="scale(1 1) rotate(0) translate(4 256)">
<title>%3</title>
<polygon fill="white" stroke="transparent" points="-4,4 -4,-256 408.64,-256 408.64,4 -4,4"/>
<!-- 5 -->
<g id="node1" class="node">
<title>5</title>
<ellipse fill="none" stroke="red" cx="171" cy="-18" rx="39.79" ry="18"/>
<text text-anchor="middle" x="171" y="-14.3" font-family="Times,serif" font-size="14.00">ONU2</text>
</g>
<!-- 7 -->
<g id="node2" class="node">
<title>7</title>
<ellipse fill="none" stroke="black" cx="59" cy="-18" rx="39.79" ry="18"/>
<text text-anchor="middle" x="59" y="-14.3" font-family="Times,serif" font-size="14.00">ONU4</text>
</g>
<!-- 8 -->
<g id="node3" class="node">
<title>8</title>
<ellipse fill="none" stroke="black" cx="112" cy="-234" rx="29.5" ry="18"/>
<text text-anchor="middle" x="112" y="-230.3" font-family="Times,serif" font-size="14.00">OLT</text>
</g>
<!-- 3 -->
<g id="node4" class="node">
<title>3</title>
<ellipse fill="none" stroke="black" cx="69" cy="-162" rx="34.39" ry="18"/>
<text text-anchor="middle" x="69" y="-158.3" font-family="Times,serif" font-size="14.00">Box3</text>
</g>
<!-- 8&#45;&gt;3 -->
<g id="edge1" class="edge">
<title>8&#45;&gt;3</title>
<path fill="none" stroke="black" d="M102.02,-216.76C96.83,-208.32 90.37,-197.8 84.54,-188.31"/>
<polygon fill="black" stroke="black" points="87.43,-186.32 79.21,-179.63 81.47,-189.99 87.43,-186.32"/>
</g>
<!-- 1 -->
<g id="node5" class="node">
<title>1</title>
<ellipse fill="none" stroke="blue" cx="165" cy="-162" rx="34.39" ry="18"/>
<text text-anchor="middle" x="165" y="-158.3" font-family="Times,serif" font-size="14.00">Box1</text>
</g>
<!-- 8&#45;&gt;1 -->
<g id="edge2" class="edge">
<title>8&#45;&gt;1</title>
<path fill="none" stroke="black" d="M123.76,-217.46C130.52,-208.53 139.17,-197.11 146.8,-187.04"/>
<polygon fill="black" stroke="black" points="149.65,-189.06 152.9,-178.98 144.07,-184.84 149.65,-189.06"/>
</g>
<!-- 2 -->
<g id="node6" class="node">
<title>2</title>
<ellipse fill="none" stroke="blue" cx="274" cy="-162" rx="34.39" ry="18"/>
<text text-anchor="middle" x="274" y="-158.3" font-family="Times,serif" font-size="14.00">Box2</text>
</g>
<!-- 8&#45;&gt;2 -->
<g id="edge3" class="edge">
<title>8&#45;&gt;2</title>
<path fill="none" stroke="black" d="M135.21,-222.97C162.32,-211.25 207.47,-191.75 238.88,-178.17"/>
<polygon fill="black" stroke="black" points="240.36,-181.35 248.15,-174.17 237.58,-174.92 240.36,-181.35"/>
</g>
<!-- 11 -->
<g id="node9" class="node">
<title>11</title>
<ellipse fill="none" stroke="black" cx="52" cy="-90" rx="51.99" ry="18"/>
<text text-anchor="middle" x="52" y="-86.3" font-family="Times,serif" font-size="14.00">Splitter3</text>
</g>
<!-- 3&#45;&gt;11 -->
<g id="edge7" class="edge">
<title>3&#45;&gt;11</title>
<path fill="none" stroke="black" d="M64.88,-144.05C62.99,-136.26 60.69,-126.82 58.57,-118.08"/>
<polygon fill="black" stroke="black" points="61.95,-117.17 56.19,-108.28 55.15,-118.82 61.95,-117.17"/>
</g>
<!-- 9 -->
<g id="node7" class="node">
<title>9</title>
<ellipse fill="none" stroke="red" cx="186" cy="-90" rx="51.99" ry="18"/>
<text text-anchor="middle" x="186" y="-86.3" font-family="Times,serif" font-size="14.00">Splitter1</text>
</g>
<!-- 1&#45;&gt;9 -->
<g id="edge4" class="edge">
<title>1&#45;&gt;9</title>
<path fill="none" stroke="black" d="M170.08,-144.05C172.42,-136.26 175.25,-126.82 177.87,-118.08"/>
<polygon fill="black" stroke="black" points="181.29,-118.86 180.81,-108.28 174.59,-116.85 181.29,-118.86"/>
</g>
<!-- 10 -->
<g id="node10" class="node">
<title>10</title>
<ellipse fill="none" stroke="red" cx="314" cy="-90" rx="51.99" ry="18"/>
<text text-anchor="middle" x="314" y="-86.3" font-family="Times,serif" font-size="14.00">Splitter2</text>
</g>
<!-- 2&#45;&gt;10 -->
<g id="edge8" class="edge">
<title>2&#45;&gt;10</title>
<path fill="none" stroke="black" d="M283.47,-144.41C288.19,-136.16 293.99,-126.01 299.27,-116.78"/>
<polygon fill="black" stroke="black" points="302.38,-118.38 304.31,-107.96 296.31,-114.9 302.38,-118.38"/>
</g>
<!-- 9&#45;&gt;5 -->
<g id="edge6" class="edge">
<title>9&#45;&gt;5</title>
<path fill="none" stroke="black" d="M182.29,-71.7C180.63,-63.98 178.65,-54.71 176.81,-46.11"/>
<polygon fill="black" stroke="black" points="180.18,-45.15 174.66,-36.1 173.33,-46.62 180.18,-45.15"/>
</g>
<!-- 4 -->
<g id="node8" class="node">
<title>4</title>
<ellipse fill="none" stroke="red" cx="268" cy="-18" rx="39.79" ry="18"/>
<text text-anchor="middle" x="268" y="-14.3" font-family="Times,serif" font-size="14.00">ONU1</text>
</g>
<!-- 9&#45;&gt;4 -->
<g id="edge5" class="edge">
<title>9&#45;&gt;4</title>
<path fill="none" stroke="black" d="M204.6,-73.12C215.77,-63.59 230.12,-51.33 242.35,-40.89"/>
<polygon fill="black" stroke="black" points="244.69,-43.49 250.03,-34.34 240.15,-38.17 244.69,-43.49"/>
</g>
<!-- 11&#45;&gt;7 -->
<g id="edge10" class="edge">
<title>11&#45;&gt;7</title>
<path fill="none" stroke="black" d="M53.73,-71.7C54.5,-63.98 55.42,-54.71 56.28,-46.11"/>
<polygon fill="black" stroke="black" points="59.77,-46.4 57.28,-36.1 52.81,-45.71 59.77,-46.4"/>
</g>
<!-- 6 -->
<g id="node11" class="node">
<title>6</title>
<ellipse fill="none" stroke="red" cx="365" cy="-18" rx="39.79" ry="18"/>
<text text-anchor="middle" x="365" y="-14.3" font-family="Times,serif" font-size="14.00">ONU3</text>
</g>
<!-- 10&#45;&gt;6 -->
<g id="edge9" class="edge">
<title>10&#45;&gt;6</title>
<path fill="none" stroke="black" d="M326.08,-72.41C332.31,-63.87 340.02,-53.28 346.94,-43.79"/>
<polygon fill="black" stroke="black" points="349.94,-45.61 353,-35.47 344.28,-41.49 349.94,-45.61"/>
</g>
</g>
</svg>
